<?xml version="1.0" encoding="UTF-8"?>
<svg id="Capa_1" xmlns="http://www.w3.org/2000/svg" version="1.1" viewBox="0 0 900 350">
  <!-- Generator: Adobe Illustrator 30.5.1, SVG Export Plug-In . SVG Version: 2.1.4 Build 3)  -->
  <defs>
    <style>
      .st0 {
        fill: #db0028;
      }
    </style>
  </defs>
  <g>
    <path d="M27.7,211.16v-78.74h25.94c5,0,9.18.9,12.52,2.69,3.34,1.79,5.85,4.24,7.53,7.34,1.68,3.1,2.51,6.63,2.51,10.57,0,3.28-.54,6.09-1.61,8.42-1.08,2.33-2.54,4.22-4.39,5.65-1.85,1.44-3.92,2.47-6.19,3.11v.62c2.48.18,4.88,1.07,7.21,2.67,2.33,1.6,4.24,3.84,5.74,6.71,1.5,2.87,2.25,6.31,2.25,10.3s-.86,7.52-2.59,10.63c-1.73,3.11-4.37,5.56-7.94,7.34-3.57,1.78-8.1,2.67-13.61,2.67h-27.36ZM34.72,167.99h19.56c3.03,0,5.68-.64,7.96-1.92,2.28-1.28,4.05-3.05,5.33-5.31,1.28-2.26,1.91-4.83,1.91-7.73,0-4.18-1.33-7.58-3.98-10.21-2.65-2.63-6.61-3.94-11.86-3.94h-18.92v29.1ZM34.72,204.71h20.34c5.93,0,10.32-1.35,13.16-4.04,2.84-2.69,4.26-6.07,4.26-10.15,0-3-.71-5.72-2.12-8.17-1.41-2.45-3.4-4.39-5.97-5.82-2.57-1.44-5.57-2.15-9.03-2.15h-20.64v30.33Z"/>
    <path d="M107.38,212.51c-3.48,0-6.66-.7-9.53-2.1-2.88-1.4-5.17-3.42-6.87-6.07-1.7-2.65-2.55-5.88-2.55-9.67,0-2.92.54-5.38,1.61-7.38,1.08-2,2.6-3.64,4.58-4.92,1.98-1.28,4.32-2.29,7.02-3.04,2.7-.74,5.68-1.32,8.93-1.73,3.23-.41,5.96-.77,8.2-1.08,2.24-.31,3.95-.79,5.12-1.46,1.18-.67,1.76-1.74,1.76-3.23v-1.38c0-4.02-1.17-7.2-3.51-9.52-2.34-2.32-5.7-3.48-10.08-3.48-4.15,0-7.54.94-10.15,2.81-2.62,1.87-4.45,4.08-5.5,6.61l-6.34-2.35c1.3-3.23,3.1-5.81,5.41-7.75,2.3-1.94,4.88-3.33,7.73-4.19,2.85-.86,5.74-1.29,8.67-1.29,2.2,0,4.5.29,6.89.88,2.39.59,4.61,1.61,6.66,3.06,2.05,1.45,3.72,3.46,4.99,6.04,1.28,2.58,1.91,5.84,1.91,9.78v40.1h-6.68v-9.34h-.41c-.8,1.74-1.99,3.43-3.57,5.07-1.58,1.64-3.55,2.99-5.93,4.04-2.38,1.05-5.17,1.58-8.37,1.58ZM108.29,206.24c3.55,0,6.63-.81,9.23-2.42,2.6-1.61,4.61-3.76,6.02-6.44,1.41-2.68,2.12-5.63,2.12-8.86v-8.53c-.5.49-1.33.92-2.5,1.31-1.16.38-2.5.72-4.02,1.02-1.51.29-3.02.55-4.52.75-1.5.21-2.85.38-4.05.54-3.25.41-6.03,1.05-8.33,1.92-2.3.87-4.07,2.07-5.29,3.59-1.23,1.53-1.84,3.48-1.84,5.86,0,3.59,1.25,6.36,3.75,8.32,2.5,1.96,5.64,2.94,9.42,2.94Z"/>
    <path d="M146.43,211.16v-59.05h6.49v9.07h.49c1.15-2.97,3.16-5.38,6.02-7.21,2.86-1.83,6.11-2.75,9.74-2.75.55,0,1.16.01,1.84.04.68.03,1.24.05,1.69.08v6.96c-.3-.05-.83-.13-1.58-.23-.75-.1-1.56-.15-2.44-.15-3,0-5.67.65-8.01,1.94-2.34,1.29-4.18,3.08-5.54,5.36-1.35,2.28-2.03,4.88-2.03,7.8v38.14h-6.68Z"/>
    <path d="M181.01,211.16v-59.05h6.49v9.07h.49c1.15-2.97,3.16-5.38,6.02-7.21,2.86-1.83,6.11-2.75,9.74-2.75.55,0,1.16.01,1.84.04.68.03,1.24.05,1.69.08v6.96c-.3-.05-.83-.13-1.58-.23-.75-.1-1.56-.15-2.44-.15-3,0-5.67.65-8.01,1.94-2.34,1.29-4.18,3.08-5.54,5.36-1.35,2.28-2.03,4.88-2.03,7.8v38.14h-6.68Z"/>
    <path d="M219.02,141.96c-1.38,0-2.55-.48-3.53-1.44-.98-.96-1.46-2.12-1.46-3.48s.49-2.52,1.46-3.48c.98-.96,2.15-1.44,3.53-1.44s2.55.48,3.53,1.44c.98.96,1.46,2.12,1.46,3.48s-.49,2.52-1.46,3.48c-.98.96-2.15,1.44-3.53,1.44ZM215.6,211.16v-59.05h6.72v59.05h-6.72Z"/>
    <path d="M258.65,212.39c-4.98,0-9.38-1.29-13.19-3.88-3.82-2.59-6.8-6.17-8.95-10.75-2.15-4.57-3.23-9.86-3.23-15.86s1.08-11.37,3.23-15.97c2.15-4.6,5.14-8.19,8.95-10.76,3.82-2.58,8.21-3.86,13.19-3.86s9.37,1.29,13.17,3.88c3.8,2.59,6.79,6.18,8.95,10.76,2.16,4.59,3.25,9.91,3.25,15.95s-1.08,11.28-3.23,15.86c-2.15,4.57-5.14,8.16-8.95,10.75-3.82,2.59-8.21,3.88-13.19,3.88ZM258.65,206.13c4,0,7.39-1.1,10.17-3.31,2.78-2.2,4.89-5.14,6.32-8.8,1.44-3.66,2.16-7.7,2.16-12.11s-.72-8.46-2.16-12.15c-1.44-3.69-3.55-6.65-6.32-8.88-2.78-2.23-6.17-3.35-10.17-3.35s-7.36,1.12-10.15,3.35c-2.79,2.23-4.9,5.19-6.34,8.88-1.44,3.69-2.16,7.74-2.16,12.15s.72,8.45,2.16,12.11c1.44,3.67,3.55,6.6,6.32,8.8,2.78,2.2,6.17,3.31,10.17,3.31Z"/>
    <path d="M374.63,132.43h7.02v52.13c0,5.36-1.23,10.14-3.68,14.36-2.45,4.22-5.86,7.53-10.23,9.96-4.37,2.42-9.44,3.63-15.22,3.63s-10.82-1.22-15.2-3.65c-4.38-2.43-7.79-5.75-10.25-9.96-2.45-4.2-3.68-8.98-3.68-14.34v-52.13h7.02v51.63c0,4.18.91,7.9,2.74,11.17,1.83,3.27,4.4,5.84,7.71,7.71,3.32,1.87,7.2,2.81,11.65,2.81s8.35-.94,11.67-2.81c3.33-1.87,5.9-4.44,7.71-7.71,1.81-3.27,2.72-6.99,2.72-11.17v-51.63Z"/>
    <path d="M403.63,174.26v36.91h-6.68v-59.05h6.49v9.27h.6c1.35-3.02,3.46-5.45,6.32-7.29,2.86-1.83,6.41-2.75,10.64-2.75,3.88,0,7.29.83,10.23,2.48,2.94,1.65,5.23,4.08,6.87,7.29,1.64,3.2,2.46,7.14,2.46,11.8v38.25h-6.68v-37.83c0-4.84-1.32-8.68-3.96-11.49-2.64-2.82-6.17-4.23-10.6-4.23-3.03,0-5.72.67-8.07,2-2.35,1.33-4.21,3.25-5.57,5.75-1.36,2.5-2.05,5.47-2.05,8.9Z"/>
    <path d="M457.9,141.96c-1.38,0-2.55-.48-3.53-1.44-.98-.96-1.46-2.12-1.46-3.48s.49-2.52,1.46-3.48c.98-.96,2.15-1.44,3.53-1.44s2.55.48,3.53,1.44c.98.96,1.46,2.12,1.46,3.48s-.49,2.52-1.46,3.48c-.98.96-2.15,1.44-3.53,1.44ZM454.49,211.16v-59.05h6.72v59.05h-6.72Z"/>
    <path d="M519.49,152.11l-21.06,59.05h-7.13l-21.06-59.05h7.24l17.12,50.02h.53l17.12-50.02h7.24Z"/>
    <path d="M549.46,212.39c-5.38,0-10.03-1.29-13.96-3.86-3.93-2.58-6.96-6.15-9.1-10.73-2.14-4.57-3.21-9.85-3.21-15.82s1.07-11.23,3.21-15.86c2.14-4.63,5.1-8.25,8.9-10.88,3.79-2.63,8.18-3.94,13.16-3.94,3.13,0,6.14.58,9.05,1.75,2.9,1.17,5.51,2.95,7.83,5.34,2.31,2.4,4.15,5.41,5.5,9.03,1.35,3.63,2.03,7.91,2.03,12.86v3.38h-45.04v-6.04h38.21c0-3.79-.74-7.21-2.23-10.25s-3.55-5.44-6.19-7.21c-2.64-1.77-5.69-2.65-9.14-2.65-3.65,0-6.87,1-9.65,3-2.78,2-4.95,4.64-6.51,7.92-1.56,3.28-2.36,6.87-2.38,10.76v3.61c0,4.69.79,8.78,2.38,12.28,1.59,3.5,3.85,6.21,6.78,8.13,2.93,1.92,6.39,2.88,10.4,2.88,2.73,0,5.12-.44,7.19-1.31,2.06-.87,3.8-2.04,5.22-3.52,1.41-1.47,2.48-3.09,3.21-4.86l6.34,2.11c-.88,2.49-2.31,4.78-4.3,6.88-1.99,2.1-4.47,3.79-7.43,5.06-2.97,1.27-6.37,1.9-10.23,1.9Z"/>
    <path d="M584,211.16v-59.05h6.49v9.07h.49c1.15-2.97,3.16-5.38,6.02-7.21,2.87-1.83,6.11-2.75,9.74-2.75.55,0,1.16.01,1.84.04.68.03,1.24.05,1.69.08v6.96c-.3-.05-.83-.13-1.58-.23-.75-.1-1.56-.15-2.44-.15-3,0-5.67.65-8.01,1.94-2.34,1.29-4.19,3.08-5.54,5.36-1.35,2.28-2.03,4.88-2.03,7.8v38.14h-6.68Z"/>
    <path d="M656.73,165.07l-6.12,1.77c-.6-1.77-1.45-3.37-2.55-4.81-1.1-1.43-2.53-2.58-4.3-3.42-1.76-.85-3.95-1.27-6.55-1.27-3.9,0-7.11.95-9.61,2.85-2.5,1.9-3.75,4.34-3.75,7.34,0,2.54.86,4.59,2.57,6.17,1.71,1.58,4.36,2.83,7.94,3.75l8.71,2.19c4.83,1.21,8.45,3.11,10.87,5.73,2.41,2.61,3.62,5.9,3.62,9.84,0,3.33-.9,6.29-2.7,8.88-1.8,2.59-4.31,4.62-7.53,6.09-3.22,1.47-6.94,2.21-11.17,2.21-5.63,0-10.27-1.3-13.92-3.9-3.65-2.6-5.99-6.36-7.02-11.28l6.42-1.61c.83,3.51,2.45,6.16,4.86,7.96,2.41,1.79,5.6,2.69,9.55,2.69,4.43,0,7.97-1.02,10.62-3.06,2.65-2.04,3.98-4.59,3.98-7.67,0-2.38-.78-4.39-2.33-6.02-1.55-1.63-3.9-2.83-7.06-3.59l-9.42-2.31c-5-1.23-8.71-3.18-11.11-5.84-2.4-2.67-3.6-5.97-3.6-9.92,0-3.25.86-6.12,2.59-8.59s4.1-4.41,7.13-5.82c3.03-1.41,6.48-2.11,10.36-2.11,5.28,0,9.5,1.22,12.67,3.67,3.17,2.45,5.45,5.81,6.85,10.09Z"/>
    <path d="M671.83,141.96c-1.38,0-2.55-.48-3.53-1.44-.98-.96-1.46-2.12-1.46-3.48s.49-2.52,1.46-3.48c.98-.96,2.15-1.44,3.53-1.44s2.55.48,3.53,1.44c.98.96,1.46,2.12,1.46,3.48s-.49,2.52-1.46,3.48c-.98.96-2.15,1.44-3.53,1.44ZM668.42,211.16v-59.05h6.72v59.05h-6.72Z"/>
    <path d="M711.62,152.11v5.96h-27.51v-5.96h27.51ZM692.7,137.96h6.72v57.78c0,2.46.41,4.39,1.24,5.79.83,1.4,1.9,2.38,3.23,2.96,1.33.58,2.74.86,4.24.86.88,0,1.63-.06,2.25-.17.63-.12,1.18-.24,1.65-.37l1.43,6.19c-.65.26-1.45.49-2.4.71-.95.22-2.13.33-3.53.33-2.45,0-4.81-.55-7.08-1.65-2.27-1.1-4.12-2.74-5.57-4.92-1.45-2.18-2.18-4.88-2.18-8.11v-59.4Z"/>
    <path d="M738.45,212.51c-3.48,0-6.66-.7-9.53-2.1-2.88-1.4-5.17-3.42-6.87-6.07-1.7-2.65-2.55-5.88-2.55-9.67,0-2.92.54-5.38,1.61-7.38,1.08-2,2.6-3.64,4.58-4.92,1.98-1.28,4.32-2.29,7.02-3.04,2.7-.74,5.68-1.32,8.93-1.73,3.23-.41,5.96-.77,8.2-1.08,2.24-.31,3.95-.79,5.12-1.46,1.18-.67,1.76-1.74,1.76-3.23v-1.38c0-4.02-1.17-7.2-3.51-9.52-2.34-2.32-5.7-3.48-10.08-3.48-4.15,0-7.54.94-10.15,2.81-2.62,1.87-4.45,4.08-5.5,6.61l-6.34-2.35c1.3-3.23,3.1-5.81,5.4-7.75,2.3-1.94,4.88-3.33,7.73-4.19,2.85-.86,5.74-1.29,8.67-1.29,2.2,0,4.5.29,6.89.88,2.39.59,4.61,1.61,6.66,3.06,2.05,1.45,3.72,3.46,4.99,6.04,1.28,2.58,1.91,5.84,1.91,9.78v40.1h-6.68v-9.34h-.41c-.8,1.74-1.99,3.43-3.57,5.07-1.58,1.64-3.55,2.99-5.93,4.04-2.38,1.05-5.17,1.58-8.37,1.58ZM739.35,206.24c3.55,0,6.63-.81,9.23-2.42,2.6-1.61,4.61-3.76,6.02-6.44,1.41-2.68,2.12-5.63,2.12-8.86v-8.53c-.5.49-1.33.92-2.5,1.31-1.16.38-2.5.72-4.02,1.02-1.51.29-3.02.55-4.52.75-1.5.21-2.85.38-4.05.54-3.25.41-6.03,1.05-8.33,1.92-2.3.87-4.07,2.07-5.29,3.59-1.23,1.53-1.84,3.48-1.84,5.86,0,3.59,1.25,6.36,3.75,8.32,2.5,1.96,5.64,2.94,9.42,2.94Z"/>
    <path d="M777.5,211.16v-59.05h6.49v9.07h.49c1.15-2.97,3.16-5.38,6.02-7.21,2.87-1.83,6.11-2.75,9.74-2.75.55,0,1.16.01,1.84.04.68.03,1.24.05,1.69.08v6.96c-.3-.05-.83-.13-1.58-.23-.75-.1-1.56-.15-2.44-.15-3,0-5.67.65-8.01,1.94-2.34,1.29-4.19,3.08-5.54,5.36-1.35,2.28-2.03,4.88-2.03,7.8v38.14h-6.68Z"/>
    <path d="M815.51,141.96c-1.38,0-2.55-.48-3.53-1.44-.98-.96-1.46-2.12-1.46-3.48s.49-2.52,1.46-3.48c.98-.96,2.15-1.44,3.53-1.44s2.55.48,3.53,1.44c.98.96,1.46,2.12,1.46,3.48s-.49,2.52-1.46,3.48c-.98.96-2.15,1.44-3.53,1.44ZM812.1,211.16v-59.05h6.72v59.05h-6.72Z"/>
    <path d="M855.14,212.39c-4.98,0-9.38-1.29-13.19-3.88-3.82-2.59-6.8-6.17-8.95-10.75-2.15-4.57-3.23-9.86-3.23-15.86s1.08-11.37,3.23-15.97c2.15-4.6,5.14-8.19,8.95-10.76,3.82-2.58,8.21-3.86,13.19-3.86s9.37,1.29,13.17,3.88c3.8,2.59,6.79,6.18,8.95,10.76,2.16,4.59,3.25,9.91,3.25,15.95s-1.08,11.28-3.23,15.86c-2.15,4.57-5.14,8.16-8.95,10.75-3.82,2.59-8.21,3.88-13.19,3.88ZM855.14,206.13c4,0,7.39-1.1,10.17-3.31,2.78-2.2,4.89-5.14,6.32-8.8,1.44-3.66,2.16-7.7,2.16-12.11s-.72-8.46-2.16-12.15c-1.44-3.69-3.55-6.65-6.32-8.88-2.78-2.23-6.17-3.35-10.17-3.35s-7.36,1.12-10.15,3.35c-2.79,2.23-4.9,5.19-6.34,8.88-1.44,3.69-2.16,7.74-2.16,12.15s.72,8.45,2.16,12.11c1.44,3.67,3.55,6.6,6.32,8.8,2.78,2.2,6.17,3.31,10.17,3.31Z"/>
    <path d="M41.48,321.83l-21.99-78.74h17.75l12.72,54.71h.64l14.04-54.71h15.2l14,54.82h.68l12.72-54.82h17.75l-21.99,78.74h-15.84l-14.64-51.48h-.6l-14.6,51.48h-15.84Z"/>
    <path d="M152.54,322.98c-5.83,0-10.87-1.27-15.11-3.83-4.24-2.55-7.51-6.11-9.82-10.69-2.3-4.57-3.45-9.89-3.45-15.94s1.15-11.44,3.45-16.01c2.3-4.57,5.57-8.14,9.82-10.69,4.24-2.55,9.28-3.82,15.11-3.82s10.87,1.28,15.11,3.82c4.24,2.55,7.51,6.11,9.82,10.69,2.3,4.57,3.45,9.91,3.45,16.01s-1.15,11.36-3.45,15.94c-2.3,4.57-5.57,8.14-9.82,10.69-4.24,2.55-9.28,3.83-15.11,3.83ZM152.61,310.29c2.65,0,4.87-.77,6.64-2.33,1.78-1.55,3.12-3.67,4.03-6.36.91-2.69,1.37-5.75,1.37-9.19s-.46-6.5-1.37-9.19c-.91-2.69-2.26-4.82-4.03-6.38-1.78-1.56-3.99-2.35-6.64-2.35s-4.92.78-6.74,2.35c-1.81,1.56-3.18,3.69-4.09,6.38-.91,2.69-1.37,5.75-1.37,9.19s.46,6.5,1.37,9.19c.91,2.69,2.28,4.81,4.09,6.36,1.81,1.55,4.06,2.33,6.74,2.33Z"/>
    <path d="M188.8,321.83v-59.05h15.24v10.42h.68c1.2-3.46,3.2-6.19,6.01-8.19,2.8-2,6.16-3,10.06-3s7.32,1.01,10.1,3.02c2.78,2.01,4.63,4.74,5.56,8.17h.6c1.18-3.38,3.31-6.09,6.4-8.13,3.09-2.04,6.75-3.06,10.98-3.06,5.38,0,9.75,1.75,13.12,5.25,3.36,3.5,5.05,8.45,5.05,14.86v39.71h-15.95v-36.48c0-3.28-.85-5.74-2.55-7.38-1.7-1.64-3.83-2.46-6.38-2.46-2.9,0-5.17.94-6.79,2.83-1.63,1.88-2.44,4.36-2.44,7.44v36.06h-15.5v-36.83c0-2.9-.81-5.2-2.42-6.92-1.61-1.72-3.73-2.58-6.36-2.58-1.78,0-3.37.46-4.79,1.36-1.41.91-2.53,2.18-3.36,3.81-.83,1.63-1.24,3.53-1.24,5.71v35.45h-15.99Z"/>
    <path d="M308.76,322.98c-5.93,0-11.03-1.24-15.3-3.71-4.27-2.47-7.55-5.98-9.85-10.53-2.3-4.55-3.45-9.94-3.45-16.17s1.15-11.4,3.45-15.99c2.3-4.59,5.55-8.16,9.74-10.73,4.19-2.56,9.11-3.84,14.77-3.84,3.8,0,7.35.62,10.64,1.86,3.29,1.24,6.17,3.11,8.63,5.59,2.46,2.49,4.38,5.61,5.76,9.36,1.38,3.75,2.06,8.14,2.06,13.17v4.5h-48.68v-10.15h33.63c0-2.36-.5-4.45-1.5-6.27-1-1.82-2.38-3.25-4.15-4.29-1.76-1.04-3.81-1.56-6.14-1.56s-4.57.57-6.44,1.71c-1.86,1.14-3.32,2.67-4.37,4.57-1.05,1.91-1.59,4.03-1.61,6.36v9.65c0,2.92.53,5.45,1.6,7.57,1.06,2.13,2.57,3.77,4.52,4.92,1.95,1.15,4.27,1.73,6.94,1.73,1.78,0,3.4-.26,4.88-.77,1.48-.51,2.74-1.28,3.79-2.31,1.05-1.02,1.85-2.28,2.4-3.77l14.79,1c-.75,3.64-2.28,6.81-4.6,9.52-2.31,2.7-5.29,4.81-8.93,6.31-3.64,1.5-7.84,2.25-12.59,2.25Z"/>
    <path d="M359.46,287.69v34.14h-15.99v-59.05h15.24v10.42h.68c1.28-3.43,3.42-6.16,6.42-8.17,3-2.01,6.64-3.02,10.92-3.02,4,0,7.49.9,10.47,2.69,2.98,1.79,5.29,4.35,6.94,7.67,1.65,3.32,2.48,7.27,2.48,11.86v37.6h-15.99v-34.68c.02-3.61-.88-6.44-2.7-8.48-1.83-2.04-4.34-3.06-7.54-3.06-2.15,0-4.05.47-5.69,1.42-1.64.95-2.92,2.33-3.83,4.13-.91,1.81-1.38,3.98-1.41,6.52Z"/>
  </g>
  <g>
    <g>
      <path class="st0" d="M44.52,47.17h-21.51v-20.15h66.64v20.15h-21.5v58.47h-23.63v-58.47Z"/>
      <path class="st0" d="M93.32,27.02h64.69v20.15h-41.05v9.8h41.05v18.72h-41.05v9.8h41.06v20.15h-64.7V27.02Z"/>
      <path class="st0" d="M162,27.02h38.81c25.58,0,34.62,19.38,34.62,39.19,0,24.12-12.47,39.42-39.24,39.42h-34.19V27.02ZM185.64,85.49h9.25c14.73,0,16.88-12.23,16.88-19.61,0-4.95-1.51-18.71-18.61-18.71h-7.53v38.32Z"/>
    </g>
    <path class="st0" d="M269.4,75.53l-7.21-12.25-7.03,12.25h-17.33l16.45-24.77-15.84-23.7h17.33l6.42,11.71,6.6-11.71h17.33l-15.83,23.7,16.45,24.77h-17.33Z"/>
  </g>
</svg>